<?xml version="1.0" encoding="utf-8"?>
<!-- Generator: Adobe Illustrator 27.0.1, SVG Export Plug-In . SVG Version: 6.00 Build 0)  -->
<svg version="1.1" id="圖層_1" xmlns="http://www.w3.org/2000/svg" xmlns:xlink="http://www.w3.org/1999/xlink" x="0px" y="0px"
	 viewBox="0 0 301.1 301.5" style="enable-background:new 0 0 301.1 301.5;" xml:space="preserve">
<style type="text/css">
	.st0{fill:#C6F277;}
</style>
<path class="st0" d="M301.1,151c0.4,82.2-66.6,150.1-148.4,150.4C68.4,301.8,0.3,235,0,151.6C-0.3,68.9,67.4,0.4,149.8,0
	C233.8-0.5,300.7,66.3,301.1,151z M185.3,163.5c0.4,0.6,0.8,1.2,1.3,1.9c-7,6.4-14.1,12.7-20.9,19.4c-4.9,4.9-4.6,11.2,0.3,16
	c4.7,4.7,11.3,4.9,16,0.1c13.7-13.9,27.3-27.8,40.9-41.8c4.8-5,4.8-11.6,0-16.5c-13.9-14.1-27.9-28-41.9-41.9
	c-4.8-4.8-11.3-4.6-16,0.1c-4.9,4.9-5,11.3-0.1,16.3c5.9,6.1,12,12,18,18.1c0.7,0.7,1.4,1.6,2.5,2.9c-1.9,0-3.1,0-4.4,0
	c-13.6,0-27.2,0-40.9,0c-17.1,0-34.3,0-51.4,0c-6.3,0-11.2,3.4-13,8.8c-2.8,8.5,3.5,16.7,12.8,16.7c30.9,0.1,61.8,0,92.6,0
	C182.6,163.5,183.9,163.5,185.3,163.5z"/>
</svg>
